#!OML:ASF H:\ManfredETheater\Project 1\Capture day 1\Session 1\subject.ASF
:FULLY-SPECIFIED
:DEGREES
289
root 0.972787 17.9451 -39.3665 192.471 -0.94304 -183.131
lowerback 14.2741 0.181096 0.203187
upperback -2.50356 0.390081 1.23104
thorax -10.7795 0.21194 1.13294
lowerneck -18.0976 -3.42693 -5.01955
upperneck 13.4521 -3.45112 0.243523
head 7.1832 -1.91255 0.495615
rclavicle -2.38542e-015 7.95139e-015
rhumerus -31.8674 -1.06294 -84.1011
rradius 59.536
rwrist -2.11589
rhand -25.573 0.1856
rfingers 7.12502
rthumb 0.958138 -29.792
lclavicle -2.38542e-015 7.95139e-015
lhumerus -35.9819 0.215275 84.9996
lradius 65.0582
lwrist 0.820555
lhand -24.7314 -4.62224
lfingers 7.12502
lthumb 1.77098 25.3502
rfemur -21.0823 -6.66702 13.4145
rtibia 38.4091
rfoot -17.3328 -7.23029
rtoes -27.3823
lfemur -29.3668 -0.684533 -16.075
ltibia 44.5342
lfoot -17.1275 -13.265
ltoes 15.3958
290
root 0.973645 17.9257 -39.4358 192.725 -1.00978 -183.062
lowerback 14.2924 0.217001 0.166943
upperback -2.56485 0.439104 1.3054
thorax -10.8607 0.240267 1.22354
lowerneck -18.0558 -3.47891 -5.04341
upperneck 13.3815 -3.52292 0.275802
head 7.15589 -1.94396 0.502872
rclavicle -3.18055e-015 -3.49861e-014
rhumerus -31.4521 -0.814361 -84.0883
rradius 59.5951
rwrist -2.16832
rhand -25.4859 0.110835
rfingers 7.12502
rthumb 1.04231 -29.8664
lclavicle -3.18055e-015 -3.49861e-014
lhumerus -35.8789 -0.0282002 85.1478
lradius 65.4421
lwrist 1.07717
lhand -24.7796 -4.60741
lfingers 7.12502
lthumb 1.72443 25.3654
rfemur -21.0209 -6.61662 13.5351
rtibia 38.3401
rfoot -17.6837 -7.7141
rtoes -27.6504
lfemur -29.4221 -0.989745 -15.9701
ltibia 44.6282
lfoot -17.9117 -12.6081
ltoes 14.3202
291
root 0.975446 17.9042 -39.5038 192.995 -1.10324 -182.986
lowerback 14.3566 0.252584 0.129829
upperback -2.63148 0.487539 1.3745
thorax -10.9753 0.268361 1.30926
lowerneck -18.0308 -3.53601 -5.06502
upperneck 13.3074 -3.60287 0.321286
head 7.13068 -1.97765 0.512966
rclavicle 2.38542e-015 2.38542e-014
rhumerus -31.0363 -0.566721 -84.0843
rradius 59.6605
rwrist -2.22136
rhand -25.3967 -0.0466572
rfingers 7.12502
rthumb 1.12844 -30.0234
lclavicle 2.38542e-015 2.38542e-014
lhumerus -35.8326 -0.306083 85.3037
lradius 65.8773
lwrist 1.38532
lhand -24.8083 -4.6335
lfingers 7.12502
lthumb 1.69676 25.3395
rfemur -21.0068 -6.56505 13.6777
rtibia 38.3287
rfoot -18.0394 -8.25765
rtoes -27.841
lfemur -29.5758 -1.26893 -15.8486
ltibia 44.8404
lfoot -18.7324 -11.9206
ltoes 12.8981
292
root 0.9777 17.8806 -39.5715 193.28 -1.23165 -182.901
lowerback 14.456 0.287356 0.108587
upperback -2.70668 0.537347 1.43353
thorax -11.1202 0.295933 1.37484
lowerneck -18.0087 -3.6007 -5.08881
upperneck 13.2287 -3.69427 0.380316
head 7.10512 -2.0155 0.526538
rclavicle 2.38542e-015 -1.43125e-014
rhumerus -30.6555 -0.323124 -84.0811
rradius 59.7461
rwrist -2.28083
rhand -25.3141 -0.283238
rfingers 7.12502
rthumb 1.20816 -30.2596
lclavicle 2.38542e-015 -1.43125e-014
lhumerus -35.849 -0.633323 85.4688
lradius 66.3554
lwrist 1.75055
lhand -24.7933 -4.65018
lfingers 7.12502
lthumb 1.71117 25.3227
rfemur -21.0287 -6.53212 13.84
rtibia 38.3668
rfoot -18.3928 -8.86772
rtoes -27.9767
lfemur -29.8225 -1.49103 -15.7186
ltibia 45.1779
lfoot -19.5995 -11.2312
ltoes 11.2123
293
root 0.980766 17.8547 -39.6392 193.582 -1.38189 -182.826
lowerback 14.5922 0.324116 0.0738118
upperback -2.79359 0.586752 1.47815
thorax -11.3005 0.324043 1.43256
lowerneck -17.9863 -3.67116 -5.11095
upperneck 13.1442 -3.79573 0.452677
head 7.07821 -2.05669 0.543123
rclavicle 1.39149e-015 1.59028e-015
rhumerus -30.3443 -0.085774 -84.0785
rradius 59.879
rwrist -2.3387
rhand -25.2236 -0.587487
rfingers 7.12502
rthumb 1.2956 -30.5633
lclavicle 1.39149e-015 1.59028e-015
lhumerus -35.9344 -1.00318 85.6365
lradius 66.8768
lwrist 2.16631
lhand -24.7237 -4.66741
lfingers 7.12502
lthumb 1.77838 25.3049
rfemur -21.0851 -6.50414 14.0022
rtibia 38.4475
rfoot -18.7301 -9.55865
rtoes -28.0872
lfemur -30.1545 -1.62562 -15.6054
ltibia 45.6459
lfoot -20.5151 -10.5501
ltoes 9.39326
294
root 0.984857 17.8271 -39.7074 193.896 -1.55418 -182.749
lowerback 14.7603 0.363646 0.0342306
upperback -2.88853 0.638306 1.51027
thorax -11.5091 0.353337 1.47883
lowerneck -17.9635 -3.74886 -5.13017
upperneck 13.0461 -3.9097 0.540226
head 7.04747 -2.10206 0.562913
rclavicle -8.15017e-015 -3.49861e-014
rhumerus -30.1201 0.15471 -84.0726
rradius 60.0628
rwrist -2.40833
rhand -25.1458 -0.920065
rfingers 7.12502
rthumb 1.37073 -30.8954
lclavicle -8.15017e-015 -3.49861e-014
lhumerus -36.0759 -1.4184 85.8026
lradius 67.4311
lwrist 2.61672
lhand -24.587 -4.66541
lfingers 7.12502
lthumb 1.91046 25.3058
rfemur -21.1695 -6.47031 14.1779
rtibia 38.562
rfoot -19.0412 -10.3365
rtoes -28.1764
lfemur -30.5614 -1.66648 -15.4996
ltibia 46.2548
lfoot -21.4662 -9.86182
ltoes 7.61627
